<svg xmlns="http://www.w3.org/2000/svg" width="11" height="10" viewBox="0 0 11 10" fill="none">
<path d="M5.5 0.1875C4.22844 0.202929 3.0133 0.714912 2.11411 1.61411C1.21491 2.5133 0.702929 3.72844 0.6875 5C0.702929 6.27156 1.21491 7.4867 2.11411 8.38589C3.0133 9.28509 4.22844 9.79707 5.5 9.8125C6.77156 9.79707 7.9867 9.28509 8.88589 8.38589C9.78509 7.4867 10.2971 6.27156 10.3125 5C10.2971 3.72844 9.78509 2.5133 8.88589 1.61411C7.9867 0.714912 6.77156 0.202929 5.5 0.1875ZM8.25 5.34375H5.84375V7.75H5.15625V5.34375H2.75V4.65625H5.15625V2.25H5.84375V4.65625H8.25V5.34375Z" fill="#009236"/>
</svg>