<svg xmlns="http://www.w3.org/2000/svg" width="22" height="22" viewBox="0 0 22 22" fill="none">
  <path d="M13.75 17.1875H18.5625V18.5625H13.75V17.1875ZM15.125 19.9375H17.1875V21.3125H15.125V19.9375ZM18.5625 15.8125H17.1875C17.1875 15.0562 17.4625 14.4375 18.0125 13.8875L18.3563 13.5438C18.9063 12.9938 19.25 12.1687 19.25 11.3438C19.25 9.625 17.875 8.25 16.1562 8.25C14.4375 8.25 13.0625 9.625 13.0625 11.3438C13.0625 12.1687 13.4062 12.925 13.9562 13.5438L14.3 13.8875C14.85 14.4375 15.125 15.0562 15.125 15.8125H13.75C13.75 15.4688 13.6125 15.125 13.3375 14.85L12.9937 14.5063C12.1687 13.6813 11.6875 12.5125 11.6875 11.3438C11.6875 8.86875 13.6812 6.875 16.1562 6.875C18.6313 6.875 20.625 8.86875 20.625 11.3438C20.625 12.5125 20.1438 13.6813 19.3188 14.5063L18.975 14.85C18.7 15.125 18.5625 15.4688 18.5625 15.8125ZM4.125 15.125H9.625V16.5H4.125V15.125Z" fill="black"/>
  <path d="M8.25 13.75C8.6297 13.75 8.9375 13.4422 8.9375 13.0625C8.9375 12.6828 8.6297 12.375 8.25 12.375C7.8703 12.375 7.5625 12.6828 7.5625 13.0625C7.5625 13.4422 7.8703 13.75 8.25 13.75Z" fill="black"/>
  <path d="M4.125 12.375H6.1875V13.75H4.125V12.375ZM4.125 9.625H8.9375V11H4.125V9.625ZM6.875 6.875H11.6875V8.25H6.875V6.875Z" fill="black"/>
  <path d="M4.8125 8.25C5.1922 8.25 5.5 7.9422 5.5 7.5625C5.5 7.1828 5.1922 6.875 4.8125 6.875C4.4328 6.875 4.125 7.1828 4.125 7.5625C4.125 7.9422 4.4328 8.25 4.8125 8.25Z" fill="black"/>
  <path d="M11 4.125H13.75V5.5H11V4.125Z" fill="black"/>
  <path d="M8.9375 5.5C9.3172 5.5 9.625 5.1922 9.625 4.8125C9.625 4.4328 9.3172 4.125 8.9375 4.125C8.5578 4.125 8.25 4.4328 8.25 4.8125C8.25 5.1922 8.5578 5.5 8.9375 5.5Z" fill="black"/>
  <path d="M4.125 4.125H6.875V5.5H4.125V4.125Z" fill="black"/>
  <path d="M12.375 19.25H2.75V2.75H15.125V5.5H16.5V2.75C16.5 1.99375 15.8813 1.375 15.125 1.375H2.75C1.99375 1.375 1.375 1.99375 1.375 2.75V19.25C1.375 20.0063 1.99375 20.625 2.75 20.625H12.375V19.25Z" fill="black"/>
</svg>