<svg xmlns="http://www.w3.org/2000/svg" width="32" height="32" viewBox="0 0 32 32" fill="none">
  <circle cx="16" cy="16" r="16" fill="#273142"/>
  <path d="M16.5003 9.4999C14.0152 7.01485 9.98515 7.01485 7.5001 9.4999C5.01505 11.9849 5.01505 16.0151 7.5001 18.5001C9.70153 20.7015 13.1158 20.95 15.5927 19.251L18.6909 22.7166C19.2176 23.3081 20.1333 23.3324 20.6925 22.7733L20.7735 22.6923C21.3326 22.1331 21.3083 21.2174 20.7168 20.6907L17.2512 17.5925C18.9529 15.1129 18.7017 11.7013 16.5003 9.4999ZM14.9552 16.955C13.3238 18.5865 10.6766 18.5865 9.04515 16.955C7.41366 15.3236 7.41366 12.6764 9.04515 11.045C10.6766 9.41346 13.3238 9.41346 14.9552 11.045C16.5894 12.6791 16.5867 15.3236 14.9552 16.955Z" fill="#FEFDFE"/>
</svg>